<svg width="3521" height="1127" xmlns="http://www.w3.org/2000/svg" xmlns:xlink="http://www.w3.org/1999/xlink" xml:space="preserve" overflow="hidden"><defs><clipPath id="clip0"><rect x="275" y="578" width="3521" height="1127"/></clipPath><clipPath id="clip1"><rect x="275" y="577" width="1128" height="1128"/></clipPath><clipPath id="clip2"><rect x="275" y="577" width="1128" height="1128"/></clipPath><clipPath id="clip3"><rect x="275" y="577" width="1128" height="1128"/></clipPath><clipPath id="clip4"><rect x="1587" y="1353" width="2210" height="209"/></clipPath><clipPath id="clip5"><rect x="1587" y="1353" width="2210" height="209"/></clipPath><clipPath id="clip6"><rect x="1587" y="1353" width="2210" height="209"/></clipPath></defs><g clip-path="url(#clip0)" transform="translate(-275 -578)"><g clip-path="url(#clip1)"><g clip-path="url(#clip2)"><g clip-path="url(#clip3)"><path d="M563.141 715.284C478.967 715.284 410.469 646.786 410.469 562.611 410.469 478.437 478.967 409.939 563.141 409.939 647.315 409.939 715.813 478.437 715.813 562.611 715.813 646.786 647.315 715.284 563.141 715.284ZM563.141 444.109C497.81 444.109 444.628 497.292 444.628 562.623 444.628 627.954 497.81 681.136 563.141 681.136 628.472 681.136 681.654 627.954 681.654 562.623 681.654 497.292 628.472 444.109 563.141 444.109Z" fill="#FFFFFF" transform="matrix(1.00089 0 0 1 275.067 577.925)"/><path d="M552.221 444.459C543.429 444.436 536.102 437.719 535.316 428.963L514.016 205.685C513.131 196.314 519.968 187.983 529.332 187.022 538.696 186.083 547.048 192.913 547.987 202.277 547.99 202.301 547.992 202.325 547.994 202.349L569.294 425.616C570.179 434.986 563.342 443.318 553.979 444.278 553.403 444.417 552.812 444.478 552.221 444.459Z" fill="#FFFFFF" transform="matrix(1.00089 0 0 1 275.067 577.925)"/><path d="M522.108 221.519C461.183 221.519 411.697 172.045 411.697 111.109 411.697 50.1732 461.172 0.698728 522.108 0.698728 583.044 0.698728 632.518 50.1732 632.518 111.109 632.518 172.045 583.044 221.519 522.108 221.519ZM522.108 34.6885C480.026 34.6885 445.856 68.8473 445.856 110.94 445.856 153.033 480.026 187.18 522.108 187.18 564.189 187.18 598.359 153.021 598.359 110.94 598.359 69.0163 564.189 34.6885 522.108 34.6885ZM203.736 599.419C194.707 599.414 187.233 592.402 186.651 583.393 186.196 574.003 193.302 565.958 202.676 565.249L426.675 551.883C435.488 551.353 444.109 558.577 444.819 567.908 445.274 577.299 438.168 585.343 428.794 586.053L204.806 599.43C204.457 599.25 204.096 599.43 203.747 599.43Z" fill="#FFFFFF" transform="matrix(1.00089 0 0 1 275.067 577.925)"/><path d="M110.591 698.379 106.714 698.379C45.7892 696.091-2.10745 644.847 0 584.092 2.05733 523.192 53.094 475.491 113.994 477.548 114.088 477.551 114.182 477.555 114.276 477.558 175.212 479.666 222.939 530.909 220.821 591.834 219.823 621.125 207.213 648.815 185.772 668.796 165.345 687.795 138.487 698.363 110.591 698.379ZM110.41 511.548C91.1266 511.517 72.553 518.821 58.4565 531.98 43.5861 545.751 34.8378 564.895 34.1588 585.151 32.7501 627.244 65.6804 662.631 107.762 664.04 149.505 665.448 185.242 632.518 186.651 590.448 188.059 548.378 155.14 512.957 113.059 511.559L110.41 511.559ZM570.185 939.62C560.898 939.598 553.32 932.18 553.1 922.896L547.465 698.559C547.221 689.176 554.63 681.372 564.012 681.129 564.075 681.127 564.138 681.126 564.2 681.125 573.352 680.944 581.455 688.337 581.635 697.68L587.27 922.017C587.527 931.381 580.145 939.18 570.782 939.438 570.755 939.439 570.729 939.439 570.703 939.44 570.534 939.62 570.365 939.62 570.185 939.62Z" fill="#FFFFFF" transform="matrix(1.00089 0 0 1 275.067 577.925)"/><path d="M572.642 1126.45C570.004 1126.45 567.536 1126.27 564.888 1126.1 504.144 1121.88 458.185 1068.87 462.411 1008.11 464.519 978.704 477.908 951.758 500.086 932.396 522.265 913.035 550.632 903.343 580.215 905.631 640.959 909.857 686.929 962.859 682.702 1023.61 678.645 1081.72 630.05 1126.45 572.642 1126.45ZM496.39 1010.59C493.403 1052.5 525.275 1089.13 567.187 1092.11 608.558 1095.11 645.715 1063.24 648.713 1021.34 650.121 1001.07 643.608 981.352 630.23 966.037 616.853 950.721 598.348 941.378 577.927 939.97 557.495 938.741 537.953 945.086 522.457 958.463 507.113 971.626 497.716 990.414 496.39 1010.59ZM923.065 585.151 698.548 582.863C689.036 582.683 681.463 575.11 681.643 565.609 681.823 556.278 689.397 548.704 698.728 548.704L698.897 548.704 923.234 550.812C932.746 550.992 940.319 558.566 940.139 568.066 940.139 577.578 932.396 585.151 923.065 585.151Z" fill="#FFFFFF" transform="matrix(1.00089 0 0 1 275.067 577.925)"/><path d="M1016.57 679.536C1012.69 679.536 1008.82 679.355 1004.95 679.006 944.376 672.672 900.176 618.081 906.69 557.675 913.035 497.1 967.795 453.08 1028.02 459.414 1057.43 462.592 1083.67 476.848 1102.33 499.737 1121 522.626 1129.45 551.511 1126.28 580.745 1120.47 637.274 1072.4 679.536 1016.57 679.536ZM1008.47 644.847C1050.45 648.56 1087.5 617.533 1091.21 575.547 1094.84 534.501 1065.23 497.986 1024.32 493.054 982.47 488.625 944.95 518.963 940.521 560.817 940.514 560.886 940.507 560.954 940.499 561.022 936.273 602.946 966.735 640.441 1008.47 644.847ZM680.415 511.548C674.96 511.548 669.494 508.911 666.147 503.975 660.903 496.13 662.948 485.526 670.734 480.195L853.688 357.478C861.511 352.214 872.121 354.288 877.385 362.111 877.413 362.152 877.44 362.193 877.467 362.234 882.742 369.977 880.623 380.717 872.881 386.002L689.926 508.73C687.109 510.669 683.762 511.548 680.415 511.548Z" fill="#FFFFFF" transform="matrix(1.00089 0 0 1 275.067 577.925)"/><path d="M923.065 420.33C873.59 420.33 833.436 380.176 833.436 330.701 833.436 281.227 873.579 241.072 923.065 241.072 972.551 241.072 1012.69 281.216 1012.69 330.701 1012.69 380.007 972.551 420.33 923.065 420.33ZM923.065 275.051C892.43 275.051 867.595 299.886 867.595 330.521 867.595 361.156 892.43 385.991 923.065 385.991 953.694 385.997 978.529 361.173 978.535 330.543 978.535 330.536 978.535 330.528 978.535 330.521 978.479 299.909 953.677 275.107 923.065 275.051ZM469.816 481.435C465.59 481.435 461.183 479.857 457.836 476.679L338.996 361.344C332.295 354.758 332.135 344.009 338.635 337.227 345.166 330.468 355.939 330.282 362.698 336.813 362.716 336.83 362.734 336.848 362.753 336.866L481.627 452.201C488.321 458.715 488.501 469.635 481.976 476.318 478.765 479.568 474.395 481.408 469.827 481.435Z" fill="#FFFFFF" transform="matrix(1.00089 0 0 1 275.067 577.925)"/><path d="M311.509 383.173C278.578 383.173 248.815 360.104 241.771 326.644 233.679 288.079 258.338 250.235 296.712 242.121 315.216 238.231 334.508 241.773 350.423 251.982 366.296 262.254 377.443 278.407 381.415 296.892 385.331 315.414 381.723 334.733 371.385 350.592 358.237 370.903 335.693 383.168 311.498 383.173ZM311.689 274.533C309.081 274.554 306.482 274.848 303.935 275.412 283.886 279.689 271.059 299.36 275.231 319.431 279.509 339.481 299.18 352.307 319.251 348.136 328.915 346.087 337.355 340.25 342.681 331.93 348.136 323.658 349.894 313.616 347.786 303.935 345.679 294.255 340.033 285.971 331.761 280.517 325.783 276.636 318.816 274.555 311.689 274.521ZM418.042 796.99C414.875 796.99 411.878 796.111 409.06 794.352 401.093 789.302 398.663 778.788 403.606 770.753L470.515 664.22C475.561 656.249 486.077 653.813 494.114 658.754 502.081 663.804 504.511 674.319 499.568 682.353L432.659 788.887C429.132 794.172 423.677 796.99 418.042 796.99Z" fill="#FFFFFF" transform="matrix(1.00089 0 0 1 275.067 577.925)"/><path d="M389.868 897.539C362.572 897.539 336.336 881.693 324.537 855.277 308.532 819.291 324.681 777.141 360.634 761.061 378.068 753.319 397.441 752.789 415.225 759.664 433.009 766.539 447.096 779.916 454.849 797.17 462.592 814.604 463.122 833.966 456.258 851.761 449.395 869.556 436.006 883.632 418.752 891.374 409.668 895.447 399.823 897.548 389.868 897.539ZM355.709 841.37C363.981 860.033 385.991 868.485 404.845 860.213 413.996 856.156 420.86 848.943 424.387 839.601 427.915 830.258 427.723 820.239 423.677 811.257 419.705 802.244 412.284 795.201 403.076 791.704 393.909 788.142 383.698 788.398 374.721 792.414 355.889 800.517 347.437 822.527 355.709 841.37ZM751.91 760.363C747.853 760.363 743.638 758.954 740.46 755.968L647.146 671.613C640.091 665.268 639.562 654.528 645.907 647.496 652.251 640.463 662.98 639.911 670.024 646.256L763.36 730.599C770.36 736.871 770.95 747.63 764.678 754.629 764.648 754.662 764.619 754.695 764.589 754.728 761.242 758.424 756.666 760.363 751.91 760.363Z" fill="#FFFFFF" transform="matrix(1.00089 0 0 1 275.067 577.925)"/><path d="M792.403 850.521C779.555 850.521 767.046 846.994 755.776 840.311 739.536 830.631 727.863 814.836 723.375 796.471 713.851 758.241 737.121 719.528 775.351 710.003 793.721 705.427 813.158 708.34 829.379 718.101 845.619 727.781 857.292 743.575 861.78 761.94 871.291 800.156 847.873 838.902 809.826 848.402 804.123 849.8 798.274 850.511 792.403 850.521ZM792.752 742.049C789.766 742.049 786.768 742.399 783.601 743.109 763.686 748.098 751.561 768.257 756.486 788.188 758.943 797.88 764.938 805.972 773.391 811.066 781.843 816.16 791.873 817.602 801.565 815.303 821.48 810.314 833.605 790.154 828.68 770.224 826.298 760.657 820.218 752.426 811.776 747.335 806.032 743.879 799.456 742.051 792.752 742.049Z" fill="#FFFFFF" transform="matrix(1.00089 0 0 1 275.067 577.925)"/></g></g></g><g><g><g><path d="M280.265-517.927C274.766-517.927 270.79-518.06 268.273-518.258 264.363-512.56 260.587-497.454 256.943-472.873 253.232-448.358 251.377-431.992 251.377-423.71 241.107-352.617 231.699-290.468 223.218-237.331L209.768-237.662 207.383-257.274C206.256-265.954 202.679-296.233 196.716-348.045 183.398-462.669 173.128-519.981 165.774-519.981L160.937-519.981C155.438-520.445 151.661-520.71 149.607-520.71L127.941-520.71C119.46-521.372 107.402-521.704 91.8315-521.704L44.3918-520.71 11.6611-519.65 7.55324-519.65C1.59016-519.65-4.04165-519.981-9.27591-520.71-12.2575-519.318-13.8476-517.728-14.1126-515.873-7.88452-485.395-0.463795-450.478 8.28206-411.188 16.9617-371.831 22.726-345.528 25.4425-332.21L32.6644-298.883C60.1609-174.586 78.3152-89.3137 86.9948-43.0005L89.0487-29.5504C92.4941-7.08944 97.5296 6.75816 104.221 12.0587 152.39 10.4023 191.813 9.60719 222.489 9.60719 253.232 9.60719 284.969 10.2035 317.766 11.3299 325.121 10.2035 330.024-2.98154 332.541-28.2253 342.679-124.496 354.207-206.323 367.326-273.772L380.047-273.441C387.402-219.972 394.69-169.219 402.044-121.051L405.158-103.89C405.622-101.372 408.14-81.9593 412.712-45.717 417.283-9.54093 420.596 8.61334 422.65 8.61334 443.985 7.68575 467.638 7.22196 493.545 7.22196L512.096 7.55324 565.764 7.55324C598.561 7.55324 622.943 7.08944 638.978 6.16185L640.7 6.89067C643.019-6.42688 647.26-28.2915 653.422-58.8358L664.486-112.835 688.537-221.827C688.272-224.61 689.399-229.38 691.784-236.271 694.235-243.161 695.627-247.269 696.091-248.661L698.873-261.382C705.035-289.806 714.444-331.216 727.032-385.547 739.687-439.877 748.698-479.896 754.198-505.537 753.336-509.91 752.409-512.56 751.481-513.488 717.558-517.596 663.758-519.65 590.147-519.65 580.076-519.65 574.046-517.861 572.125-514.349 570.137-510.771 569.077-506.266 568.878-500.767 568.878-497.52 568.746-495.002 568.481-493.213L567.156-485.263C550.591-377.066 539.394-289.806 533.431-223.549L520.378-223.549 517.596-242.101C515.74-254.491 511.235-284.24 504.013-331.349 496.791-378.457 491.557-413.772 488.377-437.094L475.987-517.596C475.523-518.06 474.86-518.258 473.933-518.258L340.161-518.258ZM771.756-425.764 771.424-375.939 769.37-8.28206 769.37 3.77662 775.863 10.336 775.532 10.336 776.592 10.9986C795.807 10.9986 825.423 10.336 865.31 8.94463L921.694 7.55324C988.679 5.96308 1033.4 5.16801 1055.86 5.16801L1170.02 6.16185C1175.06 5.30052 1177.58 1.92144 1177.58-3.77662L1175.19-97.3308C1175.19-108.329 1175.32-116.81 1175.52-122.773 1172.81-125.755 1166.25-127.279 1155.91-127.279L969.2-121.382 969.2-204.666 985.367-204.666C1027.04-204.666 1082.76-206.323 1152.47-209.768L1152.47-209.437 1152.8-209.768 1151.14-298.154 1151.14-306.436 1151.47-309.219C1151.47-313.062 1149.29-315.447 1144.91-316.242 1140.54-317.037 1131.4-317.435 1117.42-317.435L1111.92-317.435C1103.63-317.435 1090.32-317.236 1072.03-316.772L965.423-314.321C965.821-335.92 966.616-351.027 967.809-359.773L969.531-372.825C969.73-375.078 970.128-378.921 970.724-384.155 971.32-389.456 971.585-393.1 971.585-395.154 1031.68-393.365 1089.46-392.437 1144.91-392.437L1147.3-392.437C1159.69-392.437 1166.45-394.226 1167.64-397.936 1168.1-403.9 1168.3-411.585 1168.3-420.994L1168.3-517.927C1167.84-518.855 1167.17-519.583 1166.25-519.981 1077.99-519.782 946.673-518.192 772.418-515.21 771.093-515.873 770.298-516.204 770.033-516.204ZM1358.52-519.981 1319.3-519.981C1304.39-519.981 1284.45-519.385 1259.47-518.126 1234.42-516.867 1221.97-515.343 1221.97-513.488L1221.97-415.097 1221.64-407.212 1221.64-350.828C1221.64-336.583 1221.84-315.05 1222.3-286.162L1222.3-160.274 1221.64-83.947 1221.64-30.2792 1221.24-17.8893C1221.24-6.62565 1223.43 3.11405 1227.8 11.3299 1290.15 9.27591 1342.09 8.28206 1383.57 8.28206L1475.07 9.27591 1483.68 9.27591 1485.07 7.88452C1540.79 7.42073 1590.09-7.81827 1632.96-37.8325 1704.71-87.7898 1740.62-164.979 1740.62-269.266 1740.62-327.771 1723.99-381.174 1690.73-429.541 1679.27-446.304 1668.74-458.23 1659.06-465.319 1613.68-502.489 1534.9-521.041 1422.79-521.041ZM1504.29-400.984C1530.92-382.234 1544.24-338.107 1544.24-268.604 1544.24-174.851 1521.65-119.924 1476.46-103.89 1463.61-101.107 1445.39-99.5173 1421.8-99.0535 1413.98-100.445 1409.41-104.685 1408.02-111.775L1405.96-211.159C1404.11-279.006 1403.18-332.806 1403.18-372.494L1403.18-391.708 1409.41-404.43C1410.8-407.411 1413.52-412.049 1417.62-418.211 1422-418.012 1428.95-417.747 1438.43-417.548 1447.97-417.283 1455.46-417.085 1460.96-416.82 1476.79-415.693 1491.23-410.393 1504.29-400.984ZM1787.73-425.764 1787.34-375.939 1785.28-8.28206 1785.28 3.77662 1791.84 10.336 1791.51 10.336 1792.5 10.9986C1811.78 10.9986 1841.33 10.336 1881.29 8.94463L1937.67 7.55324C2004.59 5.96308 2049.31 5.16801 2071.77 5.16801L2186 6.16185C2191.04 5.30052 2193.55 1.92144 2193.55-3.77662L2191.1-97.3308C2191.1-108.329 2191.23-116.81 2191.5-122.773 2188.72-125.755 2182.16-127.279 2171.89-127.279L1985.11-121.382 1985.11-204.666 2001.28-204.666C2043.02-204.666 2098.74-206.323 2168.44-209.768L2168.44-209.437 2168.77-209.768 2167.05-298.154 2167.05-306.436 2167.38-309.219C2167.38-313.062 2165.2-315.447 2160.89-316.242 2156.52-317.037 2147.31-317.435 2133.33-317.435L2127.83-317.435C2119.61-317.435 2106.29-317.236 2087.94-316.772L1981.33-314.321C1981.8-335.92 1982.59-351.027 1983.72-359.773L1985.44-372.825C1985.71-375.078 1986.1-378.921 1986.7-384.155 1987.23-389.456 1987.5-393.1 1987.5-395.154 2047.59-393.365 2105.37-392.437 2160.89-392.437L2163.27-392.437C2175.66-392.437 2182.42-394.226 2183.55-397.936 2184.01-403.9 2184.28-411.585 2184.28-420.994L2184.28-517.927C2183.81-518.855 2183.08-519.583 2182.16-519.981 2093.9-519.782 1962.65-518.192 1788.4-515.21 1787-515.873 1786.21-516.204 1786.01-516.204Z" fill="#FFFFFF" transform="matrix(1.0006 0 0 1 1601.12 1243.32)"/></g></g></g><g clip-path="url(#clip4)"><g clip-path="url(#clip5)"><g clip-path="url(#clip6)"><path d="M126.732-125.207C114.854-136.765 98.2396-142.544 76.8902-142.544L27.4493-142.544 22.6336-80.2611 4.41436-80.2611 2.96966-64.0484 21.4297-64.0484 16.4535 0 70.2285 0C85.8794 0 99.283-3.04992 110.359-9.06951 121.515-15.1694 130.023-23.9981 135.802-35.5557 141.581-47.033 144.55-60.8379 144.55-76.8902 144.55-97.5173 138.611-113.65 126.732-125.207ZM109.717-32.4255C100.647-22.3126 87.0031-17.1759 68.8641-17.1759L38.4451-17.1759 42.2174-64.0484 80.6624-64.0484 82.1071-80.2611 43.4213-80.2611 47.033-125.288 74.8836-125.288C90.8556-125.288 102.975-121.194 111.081-113.088 119.268-104.982 123.281-92.9424 123.281-77.0507 123.281-57.467 118.786-42.5384 109.717-32.4255ZM185.965-4.57488C193.269-0.561828 201.857 1.36444 211.568 1.36444 221.601 1.36444 230.349-0.882872 237.894-5.3775 245.439-9.95238 251.298-16.4535 255.471-24.8007 259.725-33.2281 261.812-43.02 261.812-54.2565 261.812-64.1286 259.886-72.7166 255.872-80.1006 251.94-87.4044 246.402-93.1029 239.098-97.1962 231.794-101.29 223.286-103.296 213.575-103.296 203.542-103.296 194.794-101.049 187.169-96.4739 179.544-91.9793 173.605-85.4781 169.431-77.0507 165.258-68.6233 163.171-58.8314 163.171-47.6751 163.171-37.803 165.097-29.1348 169.03-21.7508 172.963-14.2865 178.581-8.58794 185.965-4.57488ZM233.72-25.4428C228.584-18.0588 221.28-14.447 211.809-14.447 202.419-14.447 195.356-17.1759 190.62-22.7139 185.885-28.2519 183.557-36.3583 183.557-47.033 183.557-59.313 186.126-69.1048 191.343-76.3283 196.56-83.6321 203.944-87.2439 213.575-87.2439 222.484-87.2439 229.386-84.4347 234.202-78.8967 239.018-73.2784 241.425-65.2523 241.425-54.8184 241.425-42.5384 238.857-32.7465 233.72-25.4428ZM245.198-134.919 256.595-134.919 243.191-163.572 224.811-163.572ZM186.126-113.891 203.382-113.891 219.354-132.27 231.955-113.891 248.569-113.891 226.015-143.106 213.414-143.106ZM367.516-94.3068C361.657-100.246 352.988-103.296 341.672-103.296 334.047-103.296 327.225-101.611 321.125-98.4002 315.105-95.1095 310.37-90.6148 307.079-84.836L306.678-100.888 287.816-100.888C287.977-98.7212 288.057-95.591 288.057-91.4977 288.057-84.2742 287.736-77.9336 287.255-72.4758L281.396 0 301.621 0 306.276-57.467C306.919-66.6167 309.808-73.8402 314.864-79.0572 319.921-84.2742 326.823-86.8425 335.492-86.8425 349.216-86.8425 356.119-79.6993 356.119-65.2523 356.119-63.4063 356.038-61.9616 355.878-61.0787L351.062 0 371.128 0 376.104-62.2826C376.264-63.5668 376.344-65.4931 376.344-67.8207 376.344-79.4585 373.375-88.2872 367.516-94.3068ZM500.99-100.888 481.165-100.888 479.962-84.4347C476.912-90.4543 472.497-95.1095 466.799-98.4002 461.02-101.611 454.198-103.296 446.172-103.296 436.701-103.296 428.354-101.049 421.13-96.4739 413.907-91.9793 408.369-85.5584 404.356-77.3717 400.343-69.1851 398.336-59.8748 398.336-49.4409 398.336-40.1306 400.102-31.9439 403.714-24.881 407.325-17.8982 412.462-12.5207 419.043-8.6682 425.625-4.89593 433.33-2.96966 441.998-2.96966 449.061-2.96966 455.402-4.41436 461.18-7.30376 466.879-10.1932 471.454-14.126 474.825-19.1824L473.38-0.561828C471.775 19.0219 461.823 28.8137 443.603 28.8137 436.621 28.8137 430.36 28.0111 424.662 26.4059 418.963 24.8007 413.104 22.2323 406.924 18.6206L402.108 34.432C413.746 41.2542 427.391 44.6252 443.202 44.6252 458.532 44.6252 470.33 40.7727 478.677 33.1479 487.025 25.4428 491.84 13.6444 493.205-2.40783ZM469.608-28.894C464.15-22.3126 456.686-19.0219 447.376-19.0219 438.146-19.0219 431.083-21.6705 426.187-27.048 421.21-32.3452 418.722-39.97 418.722-49.8422 418.722-61.48 421.451-70.6298 426.829-77.2915 432.286-83.9531 439.59-87.2439 448.981-87.2439 458.211-87.2439 465.274-84.5952 470.25-79.1375 475.306-73.76 477.795-66.0549 477.795-56.0223 477.795-44.5449 475.066-35.5557 469.608-28.894ZM605.329-34.5925 609.262-85.2373 637.113-85.2373 638.317-100.888 610.466-100.888 612.874-133.073 592.327-126.09 590.321-100.888 570.897-100.888 569.453-85.2373 589.117-85.2373 585.104-32.8268C584.943-31.7834 584.863-30.2584 584.863-28.2519 584.863-18.6206 587.511-11.2366 592.648-6.18011 597.865-1.12366 605.329 1.36444 615.121 1.36444 620.74 1.36444 625.716 0.642089 630.13-0.802611L631.334-17.1759C627.722-16.1325 624.191-15.6509 620.74-15.6509 610.306-15.6509 605.089-20.8679 605.089-31.4624ZM749.238-100.888 729.172-100.888 727.968-84.4347C724.919-90.4543 720.504-95.1095 714.806-98.4002 709.027-101.611 702.285-103.296 694.58-103.296 685.27-103.296 677.003-100.969 669.859-96.3134 662.716-91.578 657.178-85.0768 653.165-76.5691 649.152-68.0614 647.146-58.3498 647.146-47.2738 647.146-37.4017 648.911-28.7335 652.443-21.4297 655.974-14.0457 660.95-8.42742 667.452-4.49462 673.953-0.561828 681.417 1.36444 690.005 1.36444 696.907 1.36444 703.248-0.0802611 709.107-2.96966 714.886-5.93932 719.381-10.1129 722.591-15.4101L721.387 0 741.212 0ZM717.615-25.1217C712.237-17.9785 705.014-14.447 695.784-14.447 686.795-14.447 679.892-17.3364 674.836-23.1152 669.859-28.894 667.371-37.0806 667.371-47.6751 667.371-59.9551 670.02-69.5864 675.317-76.6494 680.695-83.7124 687.998-87.2439 697.389-87.2439 706.458-87.2439 713.441-84.4347 718.257-78.7362 723.153-73.1179 725.561-64.851 725.561-54.0157 725.561-41.8963 722.912-32.265 717.615-25.1217ZM690.808-113.891 706.619-141.099 718.417-113.891 735.433-113.891 714.003-154.904 700.76-154.904 672.99-113.891ZM916.662-94.3871C911.285-100.326 903.259-103.296 892.745-103.296 885.28-103.296 878.538-101.691 872.599-98.4804 866.66-95.27 861.924-90.6951 858.313-84.6755 856.146-90.7753 852.614-95.4305 847.638-98.5607 842.581-101.691 836.321-103.296 828.696-103.296 814.008-103.296 803.253-97.2765 796.431-85.2373L796.03-100.888 777.249-100.888C777.409-99.1225 777.409-96.4739 777.409-92.8621 777.409-88.0465 777.169-81.3045 776.607-72.4758L770.828 0 791.054 0 795.468-56.8249C796.11-66.6167 798.759-74.0008 803.334-79.1375 807.989-84.2742 814.169-86.8425 822.115-86.8425 828.215-86.8425 832.79-85.1571 835.759-81.7058 838.809-78.1743 840.254-72.8771 840.254-65.6536 840.254-63.8076 840.254-62.2826 840.093-61.2392L835.117 0 855.343 0 859.677-56.8249C860.48-66.6167 863.209-74.0008 867.703-79.1375 872.278-84.2742 878.458-86.8425 886.324-86.8425 892.504-86.8425 897.079-85.1571 900.048-81.7861 903.018-78.3349 904.543-73.1982 904.543-66.2154 904.543-64.1286 904.463-62.5234 904.382-61.48L899.567 0 919.552 0 924.528-62.2826C924.689-63.5668 924.769-65.5733 924.769-68.222 924.769-79.6993 922.04-88.4478 916.662-94.3871ZM1100.7-100.888 1076.3-100.888 1046.28-66.2154 1021.8-100.888 998.047-100.888 1033.84-52.0092 987.613 0 1012.01 0 1044.68-37.6425 1071.08 0 1095.08 0 1057.44-51.6079ZM1208.57-100.888 1188.59-100.888 1187.38-84.4347C1184.33-90.4543 1179.92-95.1095 1174.14-98.4002 1168.44-101.611 1161.7-103.296 1153.91-103.296 1144.6-103.296 1136.34-100.969 1129.19-96.3134 1122.13-91.578 1116.51-85.0768 1112.5-76.5691 1108.49-68.0614 1106.48-58.3498 1106.48-47.2738 1106.48-37.4017 1108.25-28.7335 1111.78-21.4297 1115.39-14.0457 1120.37-8.42742 1126.87-4.49462 1133.29-0.561828 1140.83 1.36444 1149.34 1.36444 1156.32 1.36444 1162.66-0.0802611 1168.44-2.96966 1174.3-5.93932 1178.8-10.1129 1182.01-15.4101L1180.8 0 1200.63 0ZM1176.95-25.1217C1171.65-17.9785 1164.35-14.447 1155.12-14.447 1146.21-14.447 1139.23-17.3364 1134.25-23.1152 1129.19-28.894 1126.71-37.0806 1126.71-47.6751 1126.71-59.9551 1129.43-69.5864 1134.73-76.6494 1140.11-83.7124 1147.41-87.2439 1156.72-87.2439 1165.79-87.2439 1172.78-84.4347 1177.67-78.7362 1182.57-73.1179 1184.98-64.851 1184.98-54.0157 1184.98-41.8963 1182.33-32.265 1176.95-25.1217ZM1150.14-113.891 1165.95-141.099 1177.75-113.891 1194.77-113.891 1173.34-154.904 1160.17-154.904 1132.32-113.891ZM1329.93-100.888 1309.46-100.888 1271.02-22.6336 1245.01-100.888 1224.38-100.888 1259.22-2.16705 1254.64 6.18011C1251.03 13.0023 1246.7 18.139 1241.64 21.51 1236.58 24.881 1229.28 27.6901 1219.81 29.8571L1223.02 45.4278C1234.5 43.5818 1244.29 39.8898 1252.39 34.432 1260.58 28.9743 1267.72 20.2258 1273.82 8.18664ZM1419.98-34.5925 1423.99-85.2373 1451.76-85.2373 1452.97-100.888 1425.2-100.888 1427.6-133.073 1406.98-126.09 1404.97-100.888 1385.55-100.888 1384.1-85.2373 1403.77-85.2373 1399.75-32.8268C1399.59-31.7834 1399.51-30.2584 1399.51-28.2519 1399.51-18.6206 1402.16-11.2366 1407.38-6.18011 1412.6-1.12366 1420.06 1.36444 1429.77 1.36444 1435.39 1.36444 1440.37 0.642089 1444.78-0.802611L1445.98-17.1759C1442.37-16.1325 1438.84-15.6509 1435.39-15.6509 1424.96-15.6509 1419.74-20.8679 1419.74-31.4624ZM1549.68-94.3068C1543.82-100.246 1535.23-103.296 1523.84-103.296 1516.77-103.296 1510.35-101.851 1504.58-99.0422 1498.72-96.3134 1494.06-92.3806 1490.61-87.2439L1495.43-147.359 1475.2-147.359 1463.64 0 1483.79 0 1488.44-57.467C1489.08-66.6167 1491.97-73.8402 1497.03-79.0572 1502.09-84.2742 1508.99-86.8425 1517.66-86.8425 1531.38-86.8425 1538.28-79.6993 1538.28-65.2523 1538.28-63.4063 1538.2-61.9616 1538.04-61.0787L1533.23 0 1553.29 0 1558.27-62.2826C1558.43-63.5668 1558.51-65.4931 1558.51-67.8207 1558.51-79.4585 1555.54-88.2872 1549.68-94.3068ZM1682.59-100.888 1662.53-100.888 1661.41-84.4347C1658.28-90.4543 1653.86-95.1095 1648.16-98.4002 1642.38-101.611 1635.64-103.296 1627.94-103.296 1618.63-103.296 1610.36-100.969 1603.22-96.3134 1596.07-91.578 1590.53-85.0768 1586.52-76.5691 1582.51-68.0614 1580.5-58.3498 1580.5-47.2738 1580.5-37.4017 1582.27-28.7335 1585.8-21.4297 1589.33-14.0457 1594.31-8.42742 1600.81-4.49462 1607.31-0.561828 1614.77 1.36444 1623.36 1.36444 1630.26 1.36444 1636.69-0.0802611 1642.46-2.96966 1648.24-5.93932 1652.74-10.1129 1655.95-15.4101L1654.74 0 1674.57 0ZM1650.97-25.1217C1645.59-17.9785 1638.37-14.447 1629.14-14.447 1620.23-14.447 1613.25-17.3364 1608.19-23.1152 1603.22-28.894 1600.73-37.0806 1600.73-47.6751 1600.73-59.9551 1603.38-69.5864 1608.75-76.6494 1614.05-83.7124 1621.44-87.2439 1630.75-87.2439 1639.82-87.2439 1646.8-84.4347 1651.69-78.7362 1656.51-73.1179 1659-64.851 1659-54.0157 1659-41.8963 1656.27-32.265 1650.97-25.1217ZM1645.59-134.919 1675.61-163.572 1654.58-163.572 1632.91-134.919ZM1617.74-118.305C1623.44-114.693 1630.26-112.927 1638.13-112.927 1645.75-112.927 1652.58-114.693 1658.68-118.225 1664.78-121.756 1669.51-127.134 1672.96-134.518L1663.33-138.691C1657.63-129.622 1649.53-125.127 1639.17-125.127 1633.8-125.127 1629.22-126.171 1625.37-128.177 1621.44-130.264 1618.31-133.795 1615.74-138.691L1605.3-134.518C1607.87-127.294 1611.96-121.917 1617.74-118.305ZM1790.3-94.3068C1784.37-100.246 1775.78-103.296 1764.46-103.296 1756.84-103.296 1750.01-101.611 1743.91-98.4002 1737.89-95.1095 1733.16-90.6148 1729.79-84.836L1729.39-100.888 1710.61-100.888C1710.77-98.7212 1710.85-95.591 1710.85-91.4977 1710.85-84.2742 1710.53-77.9336 1710.04-72.4758L1704.18 0 1724.41 0 1728.99-57.467C1729.71-66.6167 1732.6-73.8402 1737.65-79.0572 1742.71-84.2742 1749.61-86.8425 1758.28-86.8425 1772.01-86.8425 1778.83-79.6993 1778.83-65.2523 1778.83-63.4063 1778.83-61.9616 1778.67-61.0787L1773.85 0 1793.92 0 1798.89-62.2826C1799.05-63.5668 1799.05-65.4931 1799.05-67.8207 1799.05-79.4585 1796.16-88.2872 1790.3-94.3068ZM1923.78-100.888 1903.95-100.888 1902.75-84.4347C1899.7-90.4543 1895.29-95.1095 1889.59-98.4002 1883.81-101.611 1876.91-103.296 1868.96-103.296 1859.49-103.296 1851.14-101.049 1843.92-96.4739 1836.7-91.9793 1831.08-85.5584 1827.14-77.3717 1823.13-69.1851 1821.13-59.8748 1821.13-49.4409 1821.13-40.1306 1822.89-31.9439 1826.5-24.881 1830.11-17.8982 1835.25-12.5207 1841.83-8.6682 1848.41-4.89593 1856.04-2.96966 1864.71-2.96966 1871.77-2.96966 1878.19-4.41436 1883.97-7.30376 1889.67-10.1932 1894.24-14.126 1897.53-19.1824L1896.17-0.561828C1894.56 19.0219 1884.61 28.8137 1866.31 28.8137 1859.41 28.8137 1853.07 28.0111 1847.45 26.4059 1841.75 24.8007 1835.81 22.2323 1829.71 18.6206L1824.9 34.432C1836.54 41.2542 1850.18 44.6252 1865.91 44.6252 1881.32 44.6252 1893.12 40.7727 1901.47 33.1479 1909.81 25.4428 1914.63 13.6444 1915.99-2.40783ZM1892.4-28.894C1886.86-22.3126 1879.47-19.0219 1870.16-19.0219 1860.93-19.0219 1853.87-21.6705 1848.9-27.048 1844-32.3452 1841.51-39.97 1841.51-49.8422 1841.51-61.48 1844.24-70.6298 1849.62-77.2915 1855-83.9531 1862.38-87.2439 1871.77-87.2439 1880.92-87.2439 1888.06-84.5952 1893.04-79.1375 1898.1-73.76 1900.58-66.0549 1900.58-56.0223 1900.58-44.5449 1897.85-35.5557 1892.4-28.894ZM1999.06 0 2019.29 0 2031.09-147.359 2010.86-147.359ZM2145.94-102.172C2149.71-107.309 2151.88-113.73 2152.6-121.275L2153-127.294 2135.35-127.294 2135.19-124.084C2134.46-115.977 2132.54-110.199 2129.25-106.908 2125.96-103.537 2121.38-101.851 2115.36-101.851 2113.76-101.851 2111.75-102.092 2109.34-102.493 2104.53-103.055 2100.51-103.296 2097.3-103.296 2087.35-103.296 2078.44-101.049 2070.82-96.4739 2063.11-91.9793 2057.17-85.4781 2053-77.0507 2048.83-68.6233 2046.66-58.8314 2046.66-47.6751 2046.66-37.803 2048.67-29.1348 2052.6-21.7508 2056.53-14.2865 2062.15-8.58794 2069.53-4.57488 2076.84-0.561828 2085.34 1.36444 2095.14 1.36444 2105.17 1.36444 2113.92-0.882872 2121.46-5.3775 2129.01-9.95238 2134.87-16.4535 2139.04-24.8007 2143.29-33.2281 2145.38-43.02 2145.38-54.2565 2145.38-61.7208 2144.1-68.7035 2141.53-75.2849 2139.04-81.7861 2135.27-87.2439 2130.37-91.6582 2137.03-93.5042 2142.25-97.0357 2145.94-102.172ZM2117.21-25.4428C2112.07-18.0588 2104.77-14.447 2095.3-14.447 2085.99-14.447 2078.92-17.1759 2074.19-22.7139 2069.45-28.2519 2067.13-36.3583 2067.13-47.033 2067.13-59.313 2069.69-69.1048 2074.91-76.3283 2080.13-83.6321 2087.51-87.2439 2097.14-87.2439 2106.05-87.2439 2112.95-84.4347 2117.77-78.8967 2122.59-73.2784 2124.91-65.2523 2124.91-54.8184 2124.91-42.5384 2122.35-32.7465 2117.21-25.4428ZM2080.29 17.4167 2078.52 37.803 2099.95 37.803 2101.56 17.4167ZM2164.96 0 2185.19 0 2193.22-100.888 2172.99-100.888ZM2174.6-144.952 2172.99-123.682 2196.59-123.682 2198.19-144.952Z" fill="#FFFFFF" transform="matrix(1.00293 0 0 1 1587.69 1516.57)"/></g></g></g></g></svg>